<?xml version="1.0" encoding="utf-8"?>
<!-- Generator: Adobe Illustrator 27.0.0, SVG Export Plug-In . SVG Version: 6.00 Build 0)  -->
<svg version="1.1" xmlns="http://www.w3.org/2000/svg" xmlns:xlink="http://www.w3.org/1999/xlink" x="0px" y="0px"
	 viewBox="0 0 3710 3710" style="enable-background:new 0 0 3710 3710;" xml:space="preserve">
<style type="text/css">
	.st0{fill:#FFFFFF;}
	.st1{fill:url(#SVGID_1_);}
	.st2{opacity:0.3;}
	.st3{fill:#91B3FA;}
	.st4{fill:#BDD0FB;}
	.st5{fill:url(#SVGID_00000085220909744794872650000002508321968532228777_);}
	.st6{fill:url(#SVGID_00000026126984114268901960000003296313318798359684_);}
	.st7{fill:url(#SVGID_00000163763893383615102620000008725376547876222911_);}
	.st8{fill:url(#SVGID_00000080205595529577821150000000688218827846942868_);}
	.st9{fill:url(#SVGID_00000088099599581086878110000010319877096228498064_);}
	.st10{fill:url(#SVGID_00000113346061848933534210000011841277931025049740_);}
	.st11{fill:url(#SVGID_00000069396651614555133060000003127181371710743231_);}
	.st12{fill:#7D97F4;}
	.st13{fill:url(#SVGID_00000117641868931701891700000003346161147017740473_);}
	.st14{fill:url(#SVGID_00000145051722220952238940000008119718297997481142_);}
	.st15{fill:url(#SVGID_00000183955620808145006640000004984166248136308653_);}
	.st16{fill:url(#SVGID_00000105412377770753205570000011762617443928874135_);}
	.st17{fill:url(#SVGID_00000029033888897975122400000001690968898884929448_);}
	.st18{fill:url(#SVGID_00000036243012399155863100000016129107493596045454_);}
	.st19{fill:url(#SVGID_00000027597563045134012730000001125174518469772477_);}
	.st20{fill:url(#SVGID_00000031895456829319896550000009862288110680142208_);}
	.st21{fill:url(#SVGID_00000035505708346995320940000010852568540221223604_);}
	.st22{fill:url(#SVGID_00000021827621456237237690000008895543819273054610_);}
	.st23{fill:url(#SVGID_00000156570133775092928900000015806407799873575601_);}
	.st24{fill:url(#SVGID_00000142153735757755166190000008112116716456303541_);}
	.st25{fill:url(#SVGID_00000152982080048368450580000007602424708868790688_);}
	.st26{fill:url(#SVGID_00000003824650343630826610000004385343075739547826_);}
	.st27{fill:url(#SVGID_00000034074920308775604800000015062431986444609670_);}
	.st28{fill:url(#SVGID_00000119075885582749687450000012201389745500391082_);}
	.st29{fill:url(#SVGID_00000001642536929166600200000011133214215953702030_);}
	.st30{fill:url(#SVGID_00000155132298564107664350000003716857506071511732_);}
	.st31{fill:url(#SVGID_00000022553771026397028030000008930343173046096314_);}
	.st32{fill:url(#SVGID_00000146486855130880508460000008983435938714009255_);}
	.st33{fill:url(#SVGID_00000106113657619256089360000001035987220269712781_);}
	.st34{fill:url(#SVGID_00000056396868285275044400000016559751379567238061_);}
	.st35{fill:url(#SVGID_00000086692770345865869650000003780906029478804365_);}
	.st36{fill:url(#SVGID_00000060032222870316438760000009258060600183516039_);}
</style>
<g id="Background">
	<g>
		<g>
			<rect class="st0" width="3710" height="3710"/>
		</g>
	</g>
</g>
<g id="Illustration">
	<g>
		<linearGradient id="SVGID_1_" gradientUnits="userSpaceOnUse" x1="3486.374" y1="3663.0762" x2="1529.0676" y2="1579.4924">
			<stop  offset="0" style="stop-color:#DAE3FE"/>
			<stop  offset="1" style="stop-color:#E9EFFD"/>
		</linearGradient>
		<path class="st1" d="M2898.69,2827.15c-72.26,74.48-136.91,118.26-186.41,151.31c-482.76,322.34-1034.61,229.44-1205.23,197.68
			c-275.27-51.23-507.64-87.38-707.28-267.75c-453.65-409.86-431.59-1264.85-84.94-1794.48c41.1-62.8,387.22-575.86,940.27-648.15
			c13.53-1.77,23.62-2.78,32.46-3.71c85.55-9.06,615.72-56.87,1048.02,305.31c61.88,51.84,161.47,145.36,253.81,287.98
			C3327.05,1576.84,3328.12,2384.51,2898.69,2827.15z"/>
		<g>
			<g>
				<g class="st2">
					<path class="st3" d="M1142.15,885.76c-2.87,4.74-9.04,6.26-13.78,3.39c-9.21-5.57-18.81-10.83-28.52-15.62
						c-4.91-2.43-6.96-8.33-4.64-13.27c0.03-0.06,0.05-0.12,0.08-0.18c2.45-4.97,8.47-7.01,13.44-4.55
						c10.22,5.05,20.32,10.58,30.02,16.45c4.44,2.68,6.05,8.26,3.89,12.85C1142.5,885.15,1142.34,885.46,1142.15,885.76z
						 M1051.01,853.44c-10.26-3.42-20.77-6.44-31.24-8.97c-5.38-1.3-8.7-6.72-7.4-12.11c1.32-5.4,6.73-8.7,12.11-7.4
						c11.01,2.66,22.08,5.83,32.88,9.44c5.26,1.75,8.1,7.44,6.34,12.7c-0.13,0.38-0.28,0.75-0.44,1.11
						C1061.12,852.74,1055.88,855.07,1051.01,853.44z M967.71,835.68c-10.74-1.05-21.65-1.65-32.45-1.77
						c-5.54-0.06-9.98-4.61-9.92-10.15c0.07-5.54,4.61-9.98,10.15-9.92c11.37,0.13,22.87,0.76,34.17,1.86
						c5.52,0.54,9.55,5.45,9.01,10.97c-0.12,1.18-0.43,2.28-0.9,3.3C976.02,833.7,972.05,836.11,967.71,835.68z M882.54,837
						c-10.72,1.38-21.5,3.24-32.04,5.53c-5.42,1.17-10.76-2.27-11.94-7.68c-1.17-5.42,2.27-10.76,7.68-11.94
						c11.11-2.41,22.46-4.37,33.73-5.82c5.5-0.71,10.53,3.18,11.24,8.67c0.25,1.97-0.08,3.87-0.87,5.55
						C888.93,834.3,886.07,836.54,882.54,837z M799.78,857.25c-10.12,3.72-20.22,7.92-30.02,12.49c-5.03,2.34-11,0.17-13.34-4.85
						c-2.35-5.03-0.17-11,4.86-13.34c10.31-4.81,20.94-9.23,31.59-13.14c5.2-1.91,10.97,0.76,12.88,5.96
						c0.96,2.62,0.76,5.39-0.34,7.73C804.32,854.41,802.36,856.31,799.78,857.25z M723.56,895.32c-9.06,5.87-17.98,12.2-26.51,18.82
						c-4.38,3.4-10.69,2.6-14.08-1.78c-3.4-4.38-2.6-10.68,1.78-14.08c8.98-6.97,18.37-13.63,27.9-19.81
						c4.65-3.01,10.87-1.68,13.88,2.97c1.96,3.02,2.08,6.7,0.65,9.74C726.41,892.81,725.2,894.26,723.56,895.32z M539.81,1219.57
						c-5.54-0.07-9.98-4.62-9.9-10.17c0.15-11.35,0.8-22.86,1.93-34.18c0.55-5.52,5.47-9.54,10.98-8.99
						c5.51,0.55,9.54,5.47,8.99,10.98c-1.07,10.76-1.69,21.68-1.83,32.46c-0.02,1.48-0.36,2.88-0.95,4.14
						C547.41,1217.25,543.88,1219.62,539.81,1219.57z M657.72,949.3c-7.52,7.73-14.8,15.88-21.63,24.24
						c-3.51,4.29-9.84,4.92-14.13,1.41c-4.29-3.51-4.9-9.82-1.41-14.12c7.19-8.79,14.86-17.38,22.78-25.52
						c3.87-3.97,10.22-4.06,14.19-0.19c3.15,3.07,3.86,7.7,2.09,11.47C659.15,947.55,658.52,948.47,657.72,949.3z M548.57,1132.54
						c-5.38-1.31-8.69-6.74-7.38-12.13c2.69-11.03,5.89-22.09,9.51-32.88c1.74-5.27,7.45-8.08,12.71-6.32
						c5.25,1.76,8.08,7.45,6.32,12.71c-3.44,10.25-6.48,20.76-9.03,31.24c-0.16,0.67-0.39,1.3-0.67,1.9
						C558.04,1131.3,553.29,1133.69,548.57,1132.54z M605.61,1016.62c-5.6,9.22-10.88,18.79-15.68,28.47
						c-2.46,4.97-8.48,6.99-13.45,4.53c-4.9-2.43-6.94-8.33-4.62-13.26c0.03-0.06,0.06-0.13,0.09-0.19
						c5.05-10.19,10.61-20.28,16.5-29.98c2.88-4.74,9.05-6.24,13.79-3.36c4.42,2.69,6.03,8.25,3.87,12.84
						C605.96,1015.99,605.79,1016.31,605.61,1016.62z"/>
					<path class="st3" d="M554.48,1284.07c0.84-1.79,1.17-3.84,0.81-5.94c-0.87-5.1-1.64-10.31-2.3-15.47
						c-0.7-5.5-5.73-9.39-11.23-8.68c-5.5,0.7-9.39,5.73-8.68,11.23c0.69,5.43,1.51,10.91,2.42,16.27
						c0.93,5.46,6.11,9.15,11.57,8.22C550.45,1289.13,553.13,1286.94,554.48,1284.07z"/>
				</g>
				<g class="st2">
					<path class="st3" d="M719.39,1541.81c2.06-4.38,0.7-9.74-3.43-12.55c-4.27-2.91-8.56-5.97-12.74-9.08
						c-4.45-3.31-10.74-2.39-14.04,2.06c-3.32,4.47-2.39,10.74,2.06,14.04c4.4,3.27,8.91,6.49,13.41,9.56
						c4.58,3.12,10.82,1.94,13.95-2.64C718.91,1542.76,719.17,1542.29,719.39,1541.81z"/>
					<path class="st3" d="M1284.58,1403.44c-2.6,4.89-8.68,6.75-13.58,4.15c-4.89-2.6-6.74-8.67-4.15-13.57
						c4.95-9.32,9.59-18.99,13.83-28.86c2.16-5.08,8.09-7.44,13.19-5.26c5.09,2.19,7.45,8.09,5.26,13.19
						c-1.84,4.28-3.74,8.5-5.71,12.68C1290.62,1391.73,1287.65,1397.67,1284.58,1403.44z M1304.92,1328.47
						c-5.34-1.48-8.47-7.01-6.99-12.35c2.84-10.26,5.28-20.74,7.25-31.17c1.01-5.44,6.27-9.03,11.72-8c5.44,1.03,9.03,6.28,8,11.72
						c-2.07,10.98-4.64,22.02-7.63,32.81c-0.16,0.56-0.35,1.1-0.59,1.6C1314.64,1327.43,1309.71,1329.8,1304.92,1328.47z
						 M1255.66,1449.85c-6.54,9.05-13.56,17.95-20.86,26.44c-3.61,4.2-9.95,4.68-14.16,1.06c-4.2-3.61-4.67-9.95-1.06-14.15
						c6.94-8.06,13.6-16.51,19.81-25.1c3.25-4.49,9.52-5.5,14.02-2.26c3.97,2.87,5.22,8.11,3.21,12.4
						C1256.35,1448.79,1256.04,1449.34,1255.66,1449.85z M1320.82,1243.87c-5.54-0.27-9.81-4.98-9.53-10.51
						c0.52-10.61,0.59-21.37,0.21-31.98c-0.2-5.54,4.13-10.19,9.67-10.39c5.54-0.2,10.19,4.13,10.39,9.67
						c0.4,11.17,0.32,22.51-0.22,33.68c-0.07,1.35-0.39,2.63-0.94,3.78C1328.72,1241.69,1325,1244.08,1320.82,1243.87z
						 M1196.4,1515.18c-8.37,7.39-17.16,14.52-26.16,21.19c-4.45,3.31-10.73,2.38-14.04-2.07c-3.31-4.45-2.38-10.74,2.07-14.04
						c8.54-6.35,16.9-13.12,24.84-20.13c4.16-3.67,10.5-3.27,14.17,0.88c2.73,3.1,3.21,7.41,1.56,10.92
						C1198.28,1513.13,1197.46,1514.24,1196.4,1515.18z M1124.25,1565.92c-9.8,5.39-19.94,10.43-30.15,14.98
						c-5.06,2.26-11-0.02-13.26-5.08c-2.26-5.07,0.01-11,5.08-13.25c9.69-4.32,19.33-9.11,28.65-14.24
						c4.86-2.67,10.96-0.9,13.63,3.96c1.61,2.93,1.6,6.31,0.28,9.11C1127.62,1563.25,1126.18,1564.86,1124.25,1565.92z
						 M1042.75,1599.73c-10.75,3.13-21.75,5.84-32.69,8.06c-5.43,1.1-10.73-2.41-11.83-7.84c-1.1-5.44,2.41-10.73,7.84-11.83
						c10.4-2.11,20.85-4.68,31.07-7.66c5.32-1.55,10.89,1.51,12.44,6.83c0.71,2.45,0.45,4.94-0.55,7.08
						C1047.85,1596.88,1045.63,1598.89,1042.75,1599.73z M955.82,1614.96c-11.17,0.71-22.5,0.94-33.68,0.7
						c-5.54-0.12-9.94-4.71-9.82-10.25c0.12-5.53,4.71-9.93,10.25-9.81c10.61,0.23,21.37,0.01,31.98-0.66
						c5.53-0.35,10.3,3.85,10.65,9.38c0.11,1.75-0.23,3.42-0.93,4.9C962.77,1612.41,959.61,1614.72,955.82,1614.96z M867.62,1610.71
						c-11.03-1.77-22.12-4.04-32.98-6.74c-5.38-1.34-8.66-6.78-7.32-12.16c1.33-5.36,6.78-8.66,12.16-7.32
						c10.32,2.57,20.86,4.72,31.33,6.4c5.47,0.88,9.2,6.03,8.32,11.5c-0.15,0.95-0.43,1.85-0.83,2.69
						C876.44,1609.03,872.14,1611.44,867.62,1610.71z M782.59,1587.23c-7.65-3.04-15.29-6.36-22.73-9.85
						c-2.69-1.27-5.36-2.56-8.01-3.88c-4.96-2.47-7.11-8.48-4.52-13.45c2.46-4.96,8.49-6.99,13.46-4.52
						c2.52,1.25,5.06,2.48,7.62,3.69c7.07,3.32,14.33,6.47,21.6,9.37c5.15,2.05,7.66,7.89,5.61,13.03
						c-0.08,0.19-0.16,0.38-0.25,0.57C793.14,1586.95,787.55,1589.2,782.59,1587.23z"/>
					<path class="st3" d="M1325.01,1151.99c0.85-1.81,1.17-3.88,0.8-5.99c-0.94-5.35-2-10.79-3.17-16.15
						c-1.18-5.42-6.52-8.85-11.94-7.67c-5.42,1.18-8.85,6.52-7.67,11.94c1.11,5.1,2.12,10.26,3.01,15.34
						c0.95,5.46,6.15,9.11,11.61,8.16C1321,1157.03,1323.67,1154.84,1325.01,1151.99z"/>
				</g>
				<g>
					<path class="st3" d="M1184.32,1052.94c-0.87-1.8-2.78-2.86-4.77-2.63l-56.72,6.53c-16.7-20.79-36.83-39.06-59.95-53.84
						l0.38-57.05c0.01-2-1.25-3.79-3.13-4.46l-64.59-22.75c-1.89-0.67-3.99-0.06-5.23,1.51l-35.46,44.7
						c-27.28-2.97-54.42-1.35-80.46,4.38l-40.1-40.64c-1.41-1.42-3.56-1.8-5.37-0.94l-61.76,29.58c-1.8,0.86-2.86,2.78-2.63,4.77
						l6.53,56.72c-20.79,16.7-39.06,36.83-53.84,59.95l-57.05-0.38c-2-0.01-3.79,1.24-4.46,3.13l-22.75,64.59
						c-0.66,1.89-0.06,3.99,1.51,5.23l44.7,35.46c-2.97,27.28-1.35,54.42,4.38,80.46l-40.64,40.1c-1.42,1.41-1.8,3.56-0.94,5.37
						l29.58,61.76c0.86,1.8,2.78,2.86,4.77,2.63l56.72-6.53c16.7,20.79,36.83,39.06,59.95,53.84l-0.38,57.05
						c-0.01,2,1.24,3.79,3.13,4.46l64.59,22.75c1.89,0.66,3.99,0.06,5.23-1.51l35.46-44.69c27.28,2.97,54.42,1.35,80.46-4.38
						l40.1,40.64c1.4,1.42,3.56,1.8,5.37,0.94l61.76-29.58c1.8-0.86,2.86-2.78,2.63-4.77l-6.53-56.72
						c20.79-16.7,39.06-36.83,53.84-59.95l57.05,0.38c2,0.01,3.79-1.24,4.46-3.13l22.75-64.59c0.66-1.89,0.06-3.99-1.51-5.23
						l-44.69-35.46c2.97-27.28,1.35-54.42-4.38-80.46l40.64-40.1c1.42-1.41,1.8-3.56,0.94-5.36L1184.32,1052.94z"/>
					<g>
						<path class="st4" d="M985.29,1251.78c-20.99,31.62-63.79,40.28-95.42,19.28c-15.32-10.17-25.76-25.69-29.4-43.72
							c-3.64-18.02-0.05-36.38,10.12-51.7c20.99-31.62,63.79-40.28,95.42-19.29c28.77,19.1,38.53,56.25,24.25,86.61
							C988.84,1245.98,987.18,1248.92,985.29,1251.78z M876.21,1224.16c2.79,13.82,10.8,25.72,22.55,33.52
							c24.24,16.09,57.07,9.46,73.16-14.79c16.11-24.25,9.46-57.07-14.79-73.16c-24.24-16.09-57.07-9.46-73.16,14.79
							c-1.46,2.2-2.74,4.48-3.84,6.82C875.34,1201.53,873.94,1212.93,876.21,1224.16z"/>
					</g>
					<path class="st4" d="M1079.62,1286.56c2.45-5.21,4.66-10.58,6.6-16.09l0,0c0.61-1.73,1.19-3.48,1.75-5.23
						c2.74-8.65,4.78-17.49,6.1-26.41c0.02-0.12,0.04-0.24,0.05-0.36c0.05-0.34,0.1-0.69,0.15-1.04c0.1-0.67,0.18-1.35,0.27-2.02
						c0.23-1.77-0.74-3.42-2.27-4.14c-0.37-0.18-0.78-0.3-1.21-0.35c-2.2-0.28-4.2,1.28-4.49,3.48c-1.44,11.32-4.11,22.56-7.93,33.4
						c-18.97,53.89-63.85,91.39-115.76,103.47c-28.87,6.73-59.91,5.59-89.88-4.97c-5.26-1.85-10.38-3.95-15.35-6.29
						c-33.47-15.75-60.29-42.31-76.48-76.12c-18.61-38.84-20.97-82.6-6.66-123.22c29.56-83.88,121.79-128.04,205.64-98.5
						c5.17,1.82,10.23,3.9,15.16,6.22c21.35,10.05,40.27,24.65,55.34,42.84c0.39,0.47,0.86,0.83,1.38,1.07
						c1.36,0.64,3.03,0.48,4.27-0.54c1.7-1.42,1.95-3.94,0.53-5.65c-15.82-19.09-35.68-34.43-58.1-44.98
						c-5.17-2.43-10.48-4.61-15.91-6.53c-88.03-31.01-184.88,15.4-215.88,103.4c-15.02,42.64-12.54,88.58,7,129.36
						c17,35.5,45.15,63.38,80.29,79.92c5.22,2.46,10.6,4.66,16.12,6.61c42.65,15.02,88.58,12.54,129.36-6.99
						C1035.2,1349.87,1063.09,1321.71,1079.62,1286.56z"/>
				</g>
			</g>
			<g>
				<g class="st2">
					<path class="st3" d="M1527.76,687.48c1.14-2.43,0.61-5.41-1.5-7.28c-3.94-3.49-8.04-6.91-12.18-10.16
						c-2.69-2.11-6.59-1.64-8.7,1.05c-2.13,2.69-1.64,6.59,1.05,8.7c3.95,3.1,7.85,6.36,11.61,9.69c2.56,2.27,6.48,2.03,8.75-0.53
						C1527.19,688.5,1527.51,688,1527.76,687.48z"/>
					<path class="st3" d="M1489.02,659.82c-1.77,2.93-5.57,3.88-8.51,2.12c-7.41-4.45-15.13-8.57-22.94-12.25
						c-1.65-0.78-3.31-1.53-4.99-2.28c-3.12-1.39-4.53-5.06-3.14-8.18c1.43-2.91,5.06-4.53,8.19-3.14c1.75,0.78,3.49,1.58,5.22,2.39
						c8.19,3.85,16.29,8.18,24.06,12.85c2.75,1.65,3.76,5.1,2.42,7.94C1489.23,659.45,1489.13,659.63,1489.02,659.82z
						 M1423.1,636.38c-10.02-3.06-20.32-5.53-30.6-7.34c-3.37-0.59-5.62-3.8-5.03-7.18c0.59-3.35,3.8-5.63,7.18-5.03
						c10.78,1.89,21.58,4.48,32.08,7.7c3.27,1,5.12,4.47,4.12,7.74c-0.09,0.29-0.2,0.57-0.32,0.83
						C1429.22,635.85,1426.08,637.29,1423.1,636.38z M1361.2,625.54c-10.45-0.52-21.04-0.38-31.48,0.41
						c-3.41,0.26-6.39-2.31-6.64-5.72c-0.26-3.42,2.3-6.39,5.72-6.65c10.95-0.82,22.06-0.96,33.01-0.43
						c3.42,0.17,6.06,3.08,5.89,6.5c-0.04,0.83-0.25,1.62-0.58,2.33C1366.08,624.19,1363.79,625.67,1361.2,625.54z M1298.54,630.24
						c-10.27,2.07-20.51,4.79-30.41,8.1c-3.25,1.08-6.76-0.67-7.84-3.92c-1.08-3.24,0.67-6.76,3.92-7.84
						c10.39-3.47,21.12-6.32,31.9-8.49c3.36-0.68,6.63,1.5,7.3,4.86c0.27,1.35,0.08,2.69-0.47,3.85
						C1302.12,628.52,1300.54,629.84,1298.54,630.24z M1238.92,650.1c-9.46,4.5-18.72,9.63-27.54,15.24
						c-2.88,1.84-6.72,0.98-8.56-1.9c-1.84-2.89-0.99-6.72,1.9-8.56c9.24-5.88,18.95-11.25,28.86-15.97
						c3.09-1.47,6.79-0.16,8.26,2.93c0.83,1.75,0.77,3.69,0.01,5.31C1241.27,648.4,1240.26,649.46,1238.92,650.1z M1185.93,683.83
						c-8.07,6.66-15.79,13.88-22.97,21.48c-2.35,2.49-6.27,2.6-8.76,0.25c-2.49-2.35-2.6-6.26-0.25-8.77
						c7.52-7.96,15.63-15.54,24.09-22.53c2.64-2.18,6.55-1.8,8.72,0.84c1.58,1.91,1.82,4.49,0.83,6.59
						C1187.21,682.49,1186.66,683.23,1185.93,683.83z M1142.81,729.47c-6.17,8.41-11.89,17.32-17,26.48
						c-1.67,2.99-5.45,4.06-8.43,2.39c-2.99-1.67-4.02-5.41-2.39-8.44c5.37-9.6,11.37-18.94,17.84-27.76
						c2.03-2.76,5.91-3.36,8.67-1.33c2.43,1.78,3.18,5,1.94,7.63C1143.25,728.8,1143.05,729.14,1142.81,729.47z M1094.52,818.53
						c-3.31-0.89-5.26-4.29-4.37-7.6c2.47-9.15,5.49-18.32,8.95-27.24c0.52-1.36,1.06-2.7,1.6-4.04c1.19-3.19,4.91-4.69,8.08-3.39
						c3.17,1.29,4.69,4.91,3.4,8.08c-0.52,1.26-1.02,2.52-1.51,3.82c-3.32,8.53-6.19,17.28-8.55,26c-0.1,0.36-0.22,0.7-0.38,1.03
						C1100.49,817.87,1097.47,819.33,1094.52,818.53z"/>
				</g>
				<g class="st2">
					<path class="st3" d="M1589.33,997.95c-4.72,9.72-10.09,19.22-15.93,28.27c-1.86,2.87-5.69,3.7-8.57,1.84
						c-2.88-1.86-3.66-5.7-1.84-8.57c5.57-8.62,10.68-17.7,15.19-26.97c1.5-3.08,5.21-4.36,8.28-2.86c3.05,1.49,4.34,5.15,2.9,8.21
						C1589.36,997.9,1589.34,997.93,1589.33,997.95z M1593.87,971.78c-3.23-1.12-4.95-4.65-3.83-7.88
						c3.36-9.73,6.17-19.77,8.34-29.83c0.73-3.32,4.02-5.47,7.37-4.75c3.35,0.72,5.47,4.02,4.75,7.37
						c-2.28,10.54-5.22,21.06-8.74,31.26c-0.07,0.22-0.16,0.42-0.25,0.62C1600.17,971.4,1596.89,972.83,1593.87,971.78z
						 M1554.14,1052.37c-6.94,8.29-14.44,16.23-22.29,23.59c-2.5,2.34-6.43,2.21-8.76-0.29c-2.34-2.5-2.21-6.41,0.28-8.76
						c7.5-7.02,14.65-14.59,21.27-22.5c2.2-2.63,6.11-2.97,8.73-0.78c2.21,1.85,2.8,4.9,1.63,7.39
						C1554.78,1051.5,1554.49,1051.95,1554.14,1052.37z M1608.65,910.2c-3.41-0.31-5.92-3.32-5.62-6.73
						c0.92-10.26,1.22-20.67,0.89-30.95c-0.11-3.42,2.58-6.28,5.99-6.4c3.42-0.11,6.29,2.57,6.4,6c0.35,10.79,0.04,21.71-0.93,32.46
						c-0.07,0.74-0.26,1.44-0.56,2.08C1613.74,908.95,1611.32,910.43,1608.65,910.2z M1506.86,1096.65
						c-8.71,6.36-17.9,12.26-27.31,17.53c-2.99,1.67-6.77,0.6-8.44-2.38c-1.67-2.99-0.61-6.77,2.38-8.44
						c8.99-5.02,17.75-10.65,26.05-16.72c2.76-2.02,6.64-1.42,8.66,1.35c1.39,1.89,1.54,4.31,0.6,6.3
						C1508.38,1095.2,1507.73,1096.02,1506.86,1096.65z M1450.33,1128.31c-10,4.1-20.33,7.63-30.72,10.49
						c-3.3,0.91-6.71-1.03-7.62-4.33c-0.91-3.3,1.02-6.71,4.33-7.62c9.9-2.73,19.76-6.1,29.3-10.02c3.17-1.3,6.79,0.22,8.09,3.38
						c0.69,1.67,0.59,3.47-0.13,4.99C1452.95,1126.57,1451.82,1127.7,1450.33,1128.31z M1387.84,1145.52
						c-10.7,1.59-21.58,2.54-32.35,2.82c-3.43,0.09-6.27-2.61-6.36-6.04c-0.09-3.42,2.62-6.26,6.03-6.36
						c10.27-0.26,20.65-1.17,30.85-2.69c3.39-0.5,6.54,1.83,7.04,5.22c0.19,1.26-0.02,2.48-0.52,3.55
						C1391.69,1143.83,1389.97,1145.2,1387.84,1145.52z"/>
					<path class="st3" d="M1612.74,843.08c0.51-1.08,0.71-2.32,0.51-3.59c-0.82-5.24-1.8-10.48-2.91-15.58
						c-0.73-3.34-4.03-5.47-7.38-4.74c-3.34,0.74-5.46,4.03-4.74,7.38c1.06,4.86,1.99,9.86,2.78,14.86c0.53,3.38,3.7,5.7,7.08,5.16
						C1610.2,846.24,1611.89,844.88,1612.74,843.08z"/>
				</g>
				<g>
					<path class="st3" d="M1518.29,772.33c-0.58-1.21-1.86-1.92-3.19-1.76l-37.95,4.37c-11.17-13.91-24.65-26.14-40.11-36.02
						l0.25-38.18c0.01-1.34-0.83-2.54-2.1-2.98l-43.22-15.22c-1.26-0.45-2.67-0.04-3.5,1.01l-23.73,29.91
						c-18.25-1.99-36.41-0.91-53.84,2.93l-26.83-27.19c-0.94-0.95-2.38-1.2-3.59-0.63l-41.33,19.8c-1.21,0.58-1.92,1.86-1.76,3.19
						l4.37,37.95c-13.91,11.17-26.14,24.65-36.03,40.12l-38.18-0.25c-1.34-0.01-2.54,0.83-2.98,2.1l-15.23,43.22
						c-0.44,1.26-0.04,2.67,1.01,3.5l29.91,23.73c-1.99,18.25-0.91,36.41,2.93,53.84l-27.19,26.83c-0.95,0.94-1.2,2.38-0.63,3.59
						l19.8,41.33c0.58,1.21,1.86,1.91,3.19,1.76l37.95-4.37c11.17,13.91,24.64,26.14,40.11,36.02l-0.25,38.18
						c-0.01,1.34,0.83,2.54,2.1,2.98l43.22,15.23c1.26,0.44,2.67,0.04,3.5-1.01l23.73-29.91c18.25,1.99,36.41,0.91,53.84-2.93
						l26.83,27.19c0.94,0.95,2.38,1.2,3.59,0.63l41.33-19.8c1.21-0.58,1.92-1.86,1.76-3.19l-4.37-37.95
						c13.91-11.17,26.14-24.65,36.03-40.12l38.18,0.25c1.34,0.01,2.54-0.83,2.98-2.1l15.22-43.22c0.44-1.26,0.04-2.67-1.01-3.5
						l-29.91-23.73c1.99-18.25,0.91-36.41-2.93-53.84l27.19-26.83c0.95-0.94,1.2-2.38,0.63-3.59L1518.29,772.33z"/>
					<g>
						<path class="st4" d="M1385.79,905.84c-6.92,10.44-17.5,17.55-29.78,20.03c-12.27,2.48-24.78,0.03-35.22-6.89
							c-21.54-14.3-27.42-43.4-13.14-65c14.3-21.54,43.46-27.43,64.99-13.13c10.44,6.93,17.55,17.5,20.03,29.78
							c2.02,9.98,0.78,20.11-3.48,29.16C1388.22,901.86,1387.08,903.89,1385.79,905.84z M1327.65,908.65
							c7.68,5.1,16.88,6.9,25.91,5.07c9.03-1.83,16.81-7.06,21.9-14.73l0,0c5.09-7.68,6.89-16.88,5.07-25.91
							c-1.82-9.03-7.06-16.81-14.73-21.9c-15.85-10.52-37.29-6.18-47.81,9.66c-0.95,1.43-1.77,2.9-2.48,4.41
							C1308.35,880.46,1313.24,899.08,1327.65,908.65z"/>
					</g>
					<path class="st4" d="M1451.45,930.04c1.67-3.55,3.17-7.21,4.51-10.99c2.64-7.5,4.53-15.27,5.6-23.13
						c0.05-0.35,0.09-0.71,0.14-1.06c0.35-2.73-1.14-5.28-3.5-6.39c-0.58-0.27-1.2-0.46-1.87-0.54c-3.4-0.43-6.48,1.98-6.93,5.37
						c-0.93,7.34-2.66,14.62-5.13,21.62l0,0c-0.13,0.38-0.28,0.77-0.41,1.15c-6,16.53-15.89,30.93-28.72,42.28
						c-6.96,6.16-14.8,11.42-23.37,15.61c-0.07,0.03-0.14,0.07-0.21,0.1c-0.22,0.1-0.43,0.21-0.64,0.31
						c-25.14,12.04-53.47,13.58-79.77,4.31c-3.4-1.2-6.72-2.56-9.94-4.07c-21.67-10.2-39.03-27.39-49.52-49.28
						c-12.04-25.14-13.57-53.47-4.31-79.76c9.27-26.27,28.21-47.41,53.35-59.46c25.14-12.04,53.47-13.58,79.77-4.31
						c3.35,1.18,6.62,2.52,9.81,4.02c13.83,6.51,26.07,15.96,35.82,27.73c0.6,0.73,1.33,1.28,2.13,1.65
						c2.1,0.99,4.69,0.75,6.59-0.84c2.63-2.19,3-6.09,0.82-8.73c-10.92-13.17-24.62-23.75-40.08-31.03
						c-3.57-1.68-7.23-3.18-10.97-4.5c-29.42-10.36-61.12-8.65-89.25,4.83c-28.13,13.48-49.34,37.07-59.69,66.51
						c-10.37,29.42-8.65,61.11,4.83,89.24c11.73,24.49,31.15,43.73,55.39,55.13c3.6,1.69,7.31,3.22,11.11,4.56
						C1363.97,1010.46,1426.28,983.56,1451.45,930.04z"/>
				</g>
			</g>
		</g>
		<g>
			<g>
				
					<linearGradient id="SVGID_00000140016769505909803260000003260334910330278333_" gradientUnits="userSpaceOnUse" x1="2489.4585" y1="659.8315" x2="2638.9741" y2="-869.3073">
					<stop  offset="0" style="stop-color:#09005D"/>
					<stop  offset="1" style="stop-color:#1A0F91"/>
				</linearGradient>
				<path style="fill:url(#SVGID_00000140016769505909803260000003260334910330278333_);" d="M2777.26,1257.01
					c-4.54,0-8.3-3.59-8.48-8.17c-0.15-3.81-16.74-382.83-182.01-519.01c-48.69-40.12-106.25-55.38-171.01-45.35
					c-136.75,21.16-231.38,121.9-281.25,299.41c-37.58,133.77-34.09,263.08-34.05,264.37c0.14,4.69-3.54,8.61-8.23,8.75
					c-4.71,0.01-8.61-3.53-8.75-8.23c-0.04-1.31-3.63-132.88,34.58-269.12c22.56-80.43,55.06-146.85,96.6-197.42
					c52.35-63.73,119.15-102.27,198.51-114.55c69.78-10.8,131.84,5.7,184.44,49.05c72.08,59.4,125.66,167.04,159.25,319.94
					c24.87,113.21,28.88,210.55,28.91,211.52c0.18,4.69-3.47,8.63-8.16,8.82C2777.48,1257.01,2777.37,1257.01,2777.26,1257.01z"/>
				
					<linearGradient id="SVGID_00000006688518032848615830000014912269566463583415_" gradientUnits="userSpaceOnUse" x1="2490.6101" y1="2026.3478" x2="-1347.118" y2="3026.9453">
					<stop  offset="0" style="stop-color:#4F52FF"/>
					<stop  offset="1" style="stop-color:#4042E2"/>
				</linearGradient>
				<path style="fill:url(#SVGID_00000006688518032848615830000014912269566463583415_);" d="M1712.8,1144.68
					c1.28-8.7,8.68-15.2,17.48-15.34l960.31-15.87L3005.03,2988H1487.69C1435.57,2988,1712.8,1144.68,1712.8,1144.68z"/>
				
					<linearGradient id="SVGID_00000068665658329729801640000015950510540926943651_" gradientUnits="userSpaceOnUse" x1="4284.2876" y1="1376.8755" x2="3557.0974" y2="1743.868">
					<stop  offset="0" style="stop-color:#4F52FF"/>
					<stop  offset="1" style="stop-color:#4042E2"/>
				</linearGradient>
				<path style="fill:url(#SVGID_00000068665658329729801640000015950510540926943651_);" d="M2858.53,1127.76l-167.94-14.29
					L3005.03,2988h188.1c38.14,0,66.64-35.05,58.86-72.38l-367.52-1764.86C2881.85,1138.2,2871.3,1128.85,2858.53,1127.76z"/>
				
					<linearGradient id="SVGID_00000024681220643486058320000008303951259390558124_" gradientUnits="userSpaceOnUse" x1="2324.5515" y1="-260.1353" x2="2287.1721" y2="297.1508">
					<stop  offset="0" style="stop-color:#09005D"/>
					<stop  offset="1" style="stop-color:#1A0F91"/>
				</linearGradient>
				<path style="fill:url(#SVGID_00000024681220643486058320000008303951259390558124_);" d="M2567.63,1252.98
					c-4.54,0-8.3-3.59-8.48-8.17c-0.15-3.81-16.74-382.83-182.01-519.01c-48.69-40.12-106.24-55.37-171.01-45.35
					c-136.75,21.16-231.38,121.9-281.25,299.41c-37.58,133.77-34.09,263.08-34.05,264.37c0.14,4.69-3.54,8.61-8.23,8.75
					c-4.57,0.07-8.61-3.54-8.75-8.23c-0.04-1.31-3.63-132.88,34.58-269.12c22.56-80.43,55.06-146.85,96.6-197.42
					c52.36-63.73,119.15-102.27,198.51-114.55c69.78-10.81,131.84,5.7,184.44,49.05c72.08,59.4,125.66,167.04,159.25,319.94
					c24.87,113.21,28.88,210.55,28.91,211.52c0.18,4.69-3.47,8.63-8.16,8.82C2567.86,1252.97,2567.74,1252.98,2567.63,1252.98z"/>
			</g>
		</g>
		<g>
			
				<linearGradient id="SVGID_00000007414832419079990970000009687310492909878668_" gradientUnits="userSpaceOnUse" x1="1786.6469" y1="591.1138" x2="1936.1626" y2="-938.0253">
				<stop  offset="0" style="stop-color:#09005D"/>
				<stop  offset="1" style="stop-color:#1A0F91"/>
			</linearGradient>
			<path style="fill:url(#SVGID_00000007414832419079990970000009687310492909878668_);" d="M1966.95,1942.3
				c-0.14-3.52-15.45-353.6-168.41-479.65c-45.32-37.35-98.87-51.55-159.14-42.22c-126.86,19.63-214.59,112.95-260.77,277.37
				c-34.69,123.53-31.46,242.9-31.43,244.09l-11.67,0.36c-0.04-1.21-3.34-122.13,31.78-247.36
				c20.71-73.83,50.52-134.79,88.62-181.16c47.92-58.33,109.04-93.6,181.67-104.84c63.7-9.86,120.36,5.2,168.36,44.76
				c66.06,54.44,115.19,153.24,146.05,293.67c22.88,104.13,26.56,193.64,26.6,194.53L1966.95,1942.3z"/>
			<path class="st4" d="M856.53,2914.89l155.05-1022.05c1.48-9.76,9.79-17.03,19.66-17.19l895.92-14.81l193.8,1153.82H932.8
				C882.4,3014.66,849.18,2964.74,856.53,2914.89z"/>
			<path class="st3" d="M2099.9,1875.54l-172.73-14.7l193.8,1153.82l191.31-4.94c18.89-0.49,32.71-17.97,28.84-36.46
				l-227.83-1086.73C2111.53,1880.45,2106.2,1876.07,2099.9,1875.54z"/>
			
				<linearGradient id="SVGID_00000007409612767714899400000014623717662226629810_" gradientUnits="userSpaceOnUse" x1="1651.5455" y1="440.2509" x2="1580.1862" y2="997.5369">
				<stop  offset="0" style="stop-color:#09005D"/>
				<stop  offset="1" style="stop-color:#1A0F91"/>
			</linearGradient>
			<path style="fill:url(#SVGID_00000007409612767714899400000014623717662226629810_);" d="M1773.81,1938.59
				c-0.14-3.52-15.44-353.6-168.41-479.65c-45.32-37.35-98.86-51.55-159.14-42.22c-126.86,19.63-214.59,112.95-260.77,277.37
				c-34.69,123.53-31.46,242.9-31.43,244.09l-11.67,0.36c-0.04-1.21-3.34-122.13,31.79-247.36
				c20.71-73.83,50.52-134.79,88.62-181.16c47.92-58.33,109.04-93.6,181.67-104.84c63.71-9.86,120.36,5.2,168.36,44.76
				c66.06,54.44,115.19,153.24,146.04,293.67c22.88,104.13,26.56,193.64,26.6,194.53L1773.81,1938.59z"/>
		</g>
		<g>
			
				<linearGradient id="SVGID_00000165197543562662506240000016143008466397212809_" gradientUnits="userSpaceOnUse" x1="1128.994" y1="526.8096" x2="1278.5099" y2="-1002.3301">
				<stop  offset="0" style="stop-color:#09005D"/>
				<stop  offset="1" style="stop-color:#1A0F91"/>
			</linearGradient>
			<path style="fill:url(#SVGID_00000165197543562662506240000016143008466397212809_);" d="M1124.35,2278.37
				c-0.07-1.89-8.29-189.68-90.1-257.08c-24.03-19.8-52.44-27.33-84.41-22.38c-161.96,25.06-156.04,276.59-155.96,279.13l-9.51,0.29
				c-0.02-0.65-1.8-66.01,17.17-133.67c25.4-90.57,76.18-144.22,146.84-155.16c34.78-5.38,65.71,2.84,91.93,24.45
				c85.09,70.12,93.24,256.16,93.54,264.05L1124.35,2278.37z"/>
			<path class="st3" d="M627.27,2200.31l501.68-8.29l147.28,835.21H526.51c-25.61,0,77.69-728.57,90.45-817.84
				C617.69,2204.24,622.06,2200.4,627.27,2200.31z"/>
			<path class="st12" d="M1217.24,2199.54l-88.29-7.51l147.28,835.21h98.62c11.51,0,20.12-10.55,17.82-21.83l-162.34-794.22
				C1229.03,2204.82,1223.7,2200.08,1217.24,2199.54z"/>
			
				<linearGradient id="SVGID_00000100343141321878923640000005767347267911458699_" gradientUnits="userSpaceOnUse" x1="1234.5557" y1="1108.7959" x2="1037.4667" y2="1693.2662">
				<stop  offset="0" style="stop-color:#09005D"/>
				<stop  offset="1" style="stop-color:#1A0F91"/>
			</linearGradient>
			<path style="fill:url(#SVGID_00000100343141321878923640000005767347267911458699_);" d="M1020.36,2276.37
				c-0.07-1.89-8.29-189.68-90.1-257.08c-24.03-19.8-52.44-27.33-84.41-22.38c-161.96,25.06-156.04,276.59-155.96,279.13l-9.51,0.29
				c-0.02-0.65-1.8-66.01,17.17-133.67c25.4-90.57,76.18-144.22,146.84-155.16c34.78-5.38,65.71,2.84,91.93,24.45
				c85.09,70.12,93.24,256.16,93.54,264.05L1020.36,2276.37z"/>
		</g>
		<g>
			<g>
				
					<linearGradient id="SVGID_00000029022909705909720080000010893221797594825374_" gradientUnits="userSpaceOnUse" x1="-3555.7485" y1="3052.3816" x2="-4319.0503" y2="3882.6401" gradientTransform="matrix(-1 0 0 1 -1226.8 0)">
					<stop  offset="0" style="stop-color:#09005D"/>
					<stop  offset="1" style="stop-color:#1A0F91"/>
				</linearGradient>
				<path style="fill:url(#SVGID_00000029022909705909720080000010893221797594825374_);" d="M2570.23,3114.23
					c0,0,7.9,44.75,11.78,89.05c1.52,17.31-11.83,32.34-29.2,33.07c-58.99,2.46-185.18,7.23-230.46,5.21
					c-6.81-0.3-11.26-7.27-8.74-13.6l0,0c2.11-5.3,6.18-9.59,11.37-11.98l208.44-95.8L2570.23,3114.23z"/>
				
					<linearGradient id="SVGID_00000009584966411050544030000015655401812175587988_" gradientUnits="userSpaceOnUse" x1="-3803.5051" y1="3114.0464" x2="-3735.7048" y2="3114.0464" gradientTransform="matrix(-1 0 0 1 -1226.8 0)">
					<stop  offset="0" style="stop-color:#FEBBBA"/>
					<stop  offset="1" style="stop-color:#FF928E"/>
				</linearGradient>
				<path style="fill:url(#SVGID_00000009584966411050544030000015655401812175587988_);" d="M2576.71,3087.94l-6.35,53.53
					c0,0-36.51,17-61.45-2.14l15.12-59.65L2576.71,3087.94z"/>
				
					<linearGradient id="SVGID_00000033366007633379732030000005850910719447781769_" gradientUnits="userSpaceOnUse" x1="9083.4795" y1="1832.2339" x2="9267.4902" y2="3020.6401" gradientTransform="matrix(1 0 0 1 -6580.5273 0)">
					<stop  offset="0" style="stop-color:#09005D"/>
					<stop  offset="1" style="stop-color:#1A0F91"/>
				</linearGradient>
				<path style="fill:url(#SVGID_00000033366007633379732030000005850910719447781769_);" d="M2571.93,2081.59
					c2.74,13.98,14.73,697.56-58.34,1003.9c-1.19,5,1.34,10.15,6.1,12.09c11.21,4.58,33.18,11.21,59.51,12.1
					c8.15,0.27,15.47-5.03,17.77-12.85c20.89-71.08,120.97-427.18,134.03-767.36c14.59-380.12,0-12.94,0-12.94l-8.56-234.96
					L2571.93,2081.59z"/>
				
					<linearGradient id="SVGID_00000151525273399628406920000010619018733425294264_" gradientUnits="userSpaceOnUse" x1="-3726.9861" y1="2894.959" x2="-4490.2817" y2="3725.2114" gradientTransform="matrix(-1 0 0 1 -1226.8 0)">
					<stop  offset="0" style="stop-color:#09005D"/>
					<stop  offset="1" style="stop-color:#1A0F91"/>
				</linearGradient>
				<path style="fill:url(#SVGID_00000151525273399628406920000010619018733425294264_);" d="M2810.01,3137.58
					c0,0,12.58,22.59,24.77,82.62c2.2,10.84-5.38,21.22-16.39,22.3c-19.48,1.92-49.47,4.38-73.49,4.21
					c-11.07-0.08-19.72-9.72-18.38-20.71c2.66-21.91,10.95-57.86,36.56-85.88L2810.01,3137.58z"/>
				
					<linearGradient id="SVGID_00000080890246031524414970000013923924146263092400_" gradientUnits="userSpaceOnUse" x1="-4047.8567" y1="3110.5698" x2="-3989.3176" y2="3110.5698" gradientTransform="matrix(-1 0 0 1 -1226.8 0)">
					<stop  offset="0" style="stop-color:#FEBBBA"/>
					<stop  offset="1" style="stop-color:#FF928E"/>
				</linearGradient>
				<path style="fill:url(#SVGID_00000080890246031524414970000013923924146263092400_);" d="M2821.06,3068.73l-14.84,80.95
					c0,0-14.67,10.91-43.7,3l7.08-87.1L2821.06,3068.73z"/>
				
					<linearGradient id="SVGID_00000008127872611096281390000002243980404770262183_" gradientUnits="userSpaceOnUse" x1="9245.7891" y1="1807.103" x2="9429.8008" y2="2995.5107" gradientTransform="matrix(1 0 0 1 -6580.5273 0)">
					<stop  offset="0" style="stop-color:#09005D"/>
					<stop  offset="1" style="stop-color:#1A0F91"/>
				</linearGradient>
				<path style="fill:url(#SVGID_00000008127872611096281390000002243980404770262183_);" d="M2861.15,2102.56
					c59.76,360.67-12.96,891.42-37.49,995.3c-1.5,6.36-6.63,11.23-13.08,12.3c-10.95,1.81-28.97,3.3-46.74-1.87
					c-6.12-1.78-10.42-7.3-10.67-13.67c-3.29-83.98,2.63-599.57-53.05-803.33c-2.82-10.33-9.13-19.33-17.85-25.53l-108.08-76.84
					l-8.29-124.2L2861.15,2102.56z"/>
				<path class="st3" d="M2508.9,1432.04c0,0,274.54-68.42,466.54,33.26l-114.3,637.26c0,0-181.85,14.66-295.26-21.42
					L2508.9,1432.04z"/>
				
					<linearGradient id="SVGID_00000057866773552361007970000012352345120918976185_" gradientUnits="userSpaceOnUse" x1="2812.561" y1="1640.1597" x2="2736.1079" y2="1268.0881">
					<stop  offset="0" style="stop-color:#FEBBBA"/>
					<stop  offset="1" style="stop-color:#FF928E"/>
				</linearGradient>
				<path style="fill:url(#SVGID_00000057866773552361007970000012352345120918976185_);" d="M2816.81,1241.11l21.01,180.83
					c1.34,2.56,0.69,5.72-1.61,7.47c-14.07,10.82-65.69,43.74-138.77,11.55c-7.61-3.35-13.43-9.82-15.72-17.82l29.73-156.72
					L2816.81,1241.11z"/>
				<g>
					
						<linearGradient id="SVGID_00000070833306538601161600000018048072800638438027_" gradientUnits="userSpaceOnUse" x1="-9339.0713" y1="-3943.6248" x2="-9403.8369" y2="-4157.2363" gradientTransform="matrix(-0.9037 -0.428 -0.428 0.9037 -7472.7866 853.2395)">
						<stop  offset="0" style="stop-color:#FEBBBA"/>
						<stop  offset="1" style="stop-color:#FF928E"/>
					</linearGradient>
					<path style="fill:url(#SVGID_00000070833306538601161600000018048072800638438027_);" d="M2648.29,1146.84
						c0,0-26.74,130.67-5.61,174.05c21.14,43.38,94.57,18.19,148.61-38.02l9.46-135.38L2648.29,1146.84z"/>
					
						<linearGradient id="SVGID_00000062881106054612640210000007059106525440658852_" gradientUnits="userSpaceOnUse" x1="-9397.501" y1="-4315.812" x2="-9343.3252" y2="-4006.8108" gradientTransform="matrix(-0.9037 -0.428 -0.428 0.9037 -7472.7866 853.2395)">
						<stop  offset="0" style="stop-color:#09005D"/>
						<stop  offset="1" style="stop-color:#1A0F91"/>
					</linearGradient>
					<path style="fill:url(#SVGID_00000062881106054612640210000007059106525440658852_);" d="M2770.78,1223.8
						c-2.98-0.39-4.91-3.33-4.04-6.22c2.64-8.76,7.24-26.41,6.26-40.38c0,0,8.76-10.09-32.2-7.98
						c-40.95,2.11-102.19,4.7-123.77-24.33c-21.04-28.3-13.84-117.19,53.91-68.01c2.58,1.87,6.25,0.85,7.39-2.12
						c4.95-12.82,19.68-40.75,52.88-36.23c31.07,4.23,40.08,23.43,42.69,33.67c0.77,3.01,4.12,4.55,6.88,3.12
						c13.1-6.73,45.72-18.81,71.32,10.77c21.09,24.36,17.46,42.74,12.18,52.76c-1.71,3.25,0.59,7.08,4.26,7.12
						c9.94,0.11,23.99,4.37,29.1,26.08c7.07,30.02-26.72,37.14-36.52,38.56c-1.6,0.23-3,1.22-3.7,2.68
						c-5.43,11.3-30.6,59.87-68.56,76.01c-3.29,1.4-6.92-1.19-6.75-4.75l2.45-54.46c0.11-2.53-1.73-4.72-4.24-5.06L2770.78,1223.8z"
						/>
					
						<linearGradient id="SVGID_00000023242664252186323980000002544026206023072142_" gradientUnits="userSpaceOnUse" x1="-9405.2773" y1="-3944.6196" x2="-9463.5488" y2="-4136.8115" gradientTransform="matrix(-0.9037 -0.428 -0.428 0.9037 -7472.7866 853.2395)">
						<stop  offset="0" style="stop-color:#FEBBBA"/>
						<stop  offset="1" style="stop-color:#FF928E"/>
					</linearGradient>
					<path style="fill:url(#SVGID_00000023242664252186323980000002544026206023072142_);" d="M2766.01,1232.84
						c0,0,34.1-41.91,44.5-18.14c10.4,23.77-27.95,47.1-51.27,43.97L2766.01,1232.84z"/>
				</g>
				
					<linearGradient id="SVGID_00000101791499882350958950000011929536224995933885_" gradientUnits="userSpaceOnUse" x1="4330.7388" y1="2110.542" x2="4340.2412" y2="1715.234" gradientTransform="matrix(1 0 0 1 -1388.9229 0)">
					<stop  offset="0" style="stop-color:#FEBBBA"/>
					<stop  offset="1" style="stop-color:#FF928E"/>
				</linearGradient>
				<path style="fill:url(#SVGID_00000101791499882350958950000011929536224995933885_);" d="M3025.67,1815.11
					c0,0-18.72,239.3-176.25,249.62c0,0-67.52-6.19-96.83,16.83c-29.31,23.02-15.11,58.48-15.11,58.48l127.1-15.5
					c0,0,181.77,30.27,291.06-273.98L3025.67,1815.11z"/>
				<path class="st3" d="M2975.45,1465.3c0,0,215.63,128.27,180.19,385.26c0,0-77.03,33.39-133.04-11.37
					c0,0-43.65-166.96-138.44-175.28L2975.45,1465.3z"/>
				
					<linearGradient id="SVGID_00000152950336670925124760000013070342188496106129_" gradientUnits="userSpaceOnUse" x1="3564.8472" y1="1665.8831" x2="3572.3154" y2="1355.1877" gradientTransform="matrix(1 0 0 1 -1388.9229 0)">
					<stop  offset="0" style="stop-color:#FEBBBA"/>
					<stop  offset="1" style="stop-color:#FF928E"/>
				</linearGradient>
				<path style="fill:url(#SVGID_00000152950336670925124760000013070342188496106129_);" d="M2365.64,1557.26
					c0,0-103.55,48.13-224.66-80.36c-82.77-87.82-133.41-33.97-149.41,1.48c-16.01,35.45,22.28,32.49,35.63,32.49
					c13.35,0,15.01-38.56,38.55-33.31c23.54,5.25,16.62-1.78,18.09,21.85c1.48,23.63,128.03,290.49,284.59,160.52L2365.64,1557.26z"
					/>
				<g>
					
						<linearGradient id="SVGID_00000136397605180059092490000005418701961843832766_" gradientUnits="userSpaceOnUse" x1="2691.3511" y1="1022.0113" x2="2161.2473" y2="1837.5544">
						<stop  offset="0" style="stop-color:#FF928E"/>
						<stop  offset="1" style="stop-color:#FE7062"/>
					</linearGradient>
					<path style="fill:url(#SVGID_00000136397605180059092490000005418701961843832766_);" d="M1889.44,1594.54l355.83-19.96
						c32.45-1.82,60.91,19.08,65.06,47.78l79.68,550.78c4.75,32.83-23.98,61.91-61.18,61.91h-464.3
						c-35.23,0-63.31-26.22-61.61-57.55l28.79-530.82C1833.22,1618.75,1858.08,1596.3,1889.44,1594.54z"/>
					<path class="st4" d="M1949.53,1650.5c-5.47,0-10.01-4.31-10.24-9.83c-0.3-7.07-5.87-173.44,111.21-191.74
						c25.05-3.89,47.27,1.98,66.06,17.5c57,47.11,61.82,168.32,62,173.46c0.2,5.66-4.23,10.4-9.89,10.6
						c-5.62,0.09-10.41-4.23-10.6-9.89c-0.04-1.16-4.68-117.15-54.58-158.37c-14.25-11.78-30.55-16.02-49.81-13.03
						c-99.2,15.5-93.95,169.06-93.89,170.61c0.24,5.66-4.16,10.44-9.82,10.68C1949.82,1650.5,1949.68,1650.5,1949.53,1650.5z"/>
				</g>
				<path class="st3" d="M2508.9,1432.04l-167.06,125.22c0,0-2.95,93.81,19.2,138.17l186.09-45.73L2508.9,1432.04z"/>
			</g>
			<g>
				<g>
					<g>
						<g>
							<g>
								<g>
									
										<linearGradient id="SVGID_00000142142723759169284580000004041123681457543837_" gradientUnits="userSpaceOnUse" x1="197.3309" y1="-7933.3911" x2="-862.8729" y2="-4222.6792" gradientTransform="matrix(-1 0 0 1 -739.5045 0)">
										<stop  offset="0" style="stop-color:#FF928E"/>
										<stop  offset="1" style="stop-color:#FE7062"/>
									</linearGradient>
									<path style="fill:url(#SVGID_00000142142723759169284580000004041123681457543837_);" d="M1446.29,2412.3v148.33
										c0,55.24,20.78,108.45,50.72,154.85l28.34,36.25c32.81,50.79,88.97,79.84,149.42,79.84h620.68l4.7-15.96l152.13-557.34
										l127.65-68.83l-19.01-34.76l-142.62,77.33l-48.91,180.29H1446.29z M1490.58,2456.59h867.93l-61.22,225.85l-32.3,119.61
										h-590.22c-46.86,0-90.85-27.42-116.25-66.77l-25.8-41.14c-25.81-39.91-42.15-85.98-42.15-133.51V2456.59z"/>
								</g>
								<g>
									
										<linearGradient id="SVGID_00000150086315122464756920000018137034806252494501_" gradientUnits="userSpaceOnUse" x1="411.2147" y1="-7872.2524" x2="-648.9875" y2="-4161.5454" gradientTransform="matrix(-1 0 0 1 -739.5045 0)">
										<stop  offset="0" style="stop-color:#FF928E"/>
										<stop  offset="1" style="stop-color:#FE7062"/>
									</linearGradient>
									<path style="fill:url(#SVGID_00000150086315122464756920000018137034806252494501_);" d="M1531.99,3033.85
										c0,10.99,8.94,22.12,19.98,22.12h728.25c11.04,0,19.38-15.59,19.38-26.58v-343.4c0-3.78-0.75-3.4-2.59-6.41l-32.02,122.47
										h-9.69v209.64h-703.33C1540.93,3011.68,1531.99,3022.82,1531.99,3033.85z"/>
								</g>
							</g>
							<g>
								
									<linearGradient id="SVGID_00000024714399673443584140000003759620351905897388_" gradientUnits="userSpaceOnUse" x1="341.033" y1="-7892.3188" x2="-719.1661" y2="-4181.6235" gradientTransform="matrix(-1 0 0 1 -739.5045 0)">
									<stop  offset="0" style="stop-color:#FF928E"/>
									<stop  offset="1" style="stop-color:#FE7062"/>
								</linearGradient>
								
									<rect x="1909.71" y="2433.15" style="fill:url(#SVGID_00000024714399673443584140000003759620351905897388_);" width="26.58" height="373.82"/>
								<g>
									
										<linearGradient id="SVGID_00000169523944165548549270000016437954144517309354_" gradientUnits="userSpaceOnUse" x1="123.9391" y1="-7954.3345" x2="-936.2687" y2="-4243.6074" gradientTransform="matrix(-1 0 0 1 -739.5045 0)">
										<stop  offset="0" style="stop-color:#FF928E"/>
										<stop  offset="1" style="stop-color:#FE7062"/>
									</linearGradient>
									
										<rect x="2144.52" y="2433.15" style="fill:url(#SVGID_00000169523944165548549270000016437954144517309354_);" width="26.58" height="373.82"/>
									
										<linearGradient id="SVGID_00000085968048833413354940000012398717979777538721_" gradientUnits="userSpaceOnUse" x1="553.0084" y1="-7831.7739" x2="-507.1907" y2="-4121.0781" gradientTransform="matrix(-1 0 0 1 -739.5045 0)">
										<stop  offset="0" style="stop-color:#FF928E"/>
										<stop  offset="1" style="stop-color:#FE7062"/>
									</linearGradient>
									
										<rect x="1680.43" y="2433.15" style="fill:url(#SVGID_00000085968048833413354940000012398717979777538721_);" width="26.58" height="373.82"/>
								</g>
							</g>
							<g>
								
									<linearGradient id="SVGID_00000056395342228539255480000013971427909117114496_" gradientUnits="userSpaceOnUse" x1="330.2382" y1="-7895.4146" x2="-729.9667" y2="-4184.6987" gradientTransform="matrix(-1 0 0 1 -739.5045 0)">
									<stop  offset="0" style="stop-color:#FF928E"/>
									<stop  offset="1" style="stop-color:#FE7062"/>
								</linearGradient>
								
									<rect x="1483.78" y="2543.11" style="fill:url(#SVGID_00000056395342228539255480000013971427909117114496_);" width="864.63" height="23.77"/>
								
									<linearGradient id="SVGID_00000176765480300895269500000005115188596447589007_" gradientUnits="userSpaceOnUse" x1="372.0463" y1="-7883.4712" x2="-688.1572" y2="-4172.7598" gradientTransform="matrix(-1 0 0 1 -739.5045 0)">
									<stop  offset="0" style="stop-color:#FF928E"/>
									<stop  offset="1" style="stop-color:#FE7062"/>
								</linearGradient>
								
									<rect x="1505.43" y="2673.24" style="fill:url(#SVGID_00000176765480300895269500000005115188596447589007_);" width="805.23" height="23.77"/>
							</g>
						</g>
						
							<linearGradient id="SVGID_00000171699194874935081810000005034061873161137304_" gradientUnits="userSpaceOnUse" x1="242.0489" y1="-7920.5986" x2="-818.1527" y2="-4209.8936" gradientTransform="matrix(-1 0 0 1 -739.5045 0)">
							<stop  offset="0" style="stop-color:#FF928E"/>
							<stop  offset="1" style="stop-color:#FE7062"/>
						</linearGradient>
						<path style="fill:url(#SVGID_00000171699194874935081810000005034061873161137304_);" d="M2101.08,3169.13
							c0,47.42,38.44,85.87,85.86,85.87c47.42,0,85.87-38.44,85.87-85.87c0-47.42-38.44-85.86-85.87-85.86
							C2139.52,3083.27,2101.08,3121.71,2101.08,3169.13z M2135.12,3169.13c0-28.62,23.2-51.83,51.83-51.83
							c28.62,0,51.83,23.2,51.83,51.83c0,28.62-23.21,51.83-51.83,51.83C2158.32,3220.96,2135.12,3197.76,2135.12,3169.13z"/>
						
							<linearGradient id="SVGID_00000039853213601929488370000006448906625844552862_" gradientUnits="userSpaceOnUse" x1="735.3694" y1="-7779.6465" x2="-324.8323" y2="-4068.9412" gradientTransform="matrix(-1 0 0 1 -739.5045 0)">
							<stop  offset="0" style="stop-color:#FF928E"/>
							<stop  offset="1" style="stop-color:#FE7062"/>
						</linearGradient>
						<path style="fill:url(#SVGID_00000039853213601929488370000006448906625844552862_);" d="M1567.48,3169.13
							c0,47.42,38.44,85.87,85.86,85.87c47.42,0,85.87-38.44,85.87-85.87c0-47.42-38.44-85.86-85.87-85.86
							C1605.93,3083.27,1567.48,3121.71,1567.48,3169.13z M1601.52,3169.13c0-28.62,23.2-51.83,51.83-51.83
							c28.62,0,51.83,23.2,51.83,51.83c0,28.62-23.2,51.83-51.83,51.83C1624.73,3220.96,1601.52,3197.76,1601.52,3169.13z"/>
					</g>
					
						<linearGradient id="SVGID_00000073691005929166870180000010353570884630954391_" gradientUnits="userSpaceOnUse" x1="-380.0519" y1="-8098.3384" x2="-1440.2539" y2="-4387.6323" gradientTransform="matrix(-1 0 0 1 -739.5045 0)">
						<stop  offset="0" style="stop-color:#FF928E"/>
						<stop  offset="1" style="stop-color:#FE7062"/>
					</linearGradient>
					<path style="fill:url(#SVGID_00000073691005929166870180000010353570884630954391_);" d="M2472.45,2189.42
						c0,22.28,18.06,40.34,40.34,40.34h134.23c22.28,0,40.34-18.06,40.34-40.34l0,0c0-22.28-18.06-40.34-40.34-40.34h-134.23
						C2490.51,2149.08,2472.45,2167.14,2472.45,2189.42L2472.45,2189.42z"/>
				</g>
			</g>
		</g>
	</g>
</g>
</svg>
